<svg width="1440" height="965" viewBox="0 0 1440 965" fill="none" xmlns="http://www.w3.org/2000/svg">
<g clip-path="url(#clip0_208:36)">
<rect width="1440" height="965" fill="white"/>
<path d="M0 0H1440V964.5H0V0Z" fill="#1B262C"/>
<g opacity="0.8" clip-path="url(#clip1_208:36)">
<mask id="mask0_208:36" style="mask-type:alpha" maskUnits="userSpaceOnUse" x="575" y="-921" width="1646" height="2089">
<path fill-rule="evenodd" clip-rule="evenodd" d="M1654.98 824.342C1475.09 968.519 1195.97 646.296 1149.71 241.029L1142.62 178.935C1093.2 -253.994 795.781 -599.332 602.399 -448.323L575.743 -427.507L576.591 -425.369L603.248 -446.185C795.863 -596.597 1092.1 -252.625 1141.33 178.594L1148.42 240.688C1194.87 647.666 1475.18 971.267 1655.84 826.472L1718.89 775.948C1848.98 671.689 2049.97 870.73 2113.81 1167.04L2115.03 1166.97C2050.86 869.092 1848.81 669.007 1718.03 773.817L1654.98 824.342ZM1662.54 793.217C1482.64 937.383 1203.52 615.16 1157.26 209.903L1150.18 147.809C1100.76 -285.124 803.338 -630.462 609.956 -479.453L583.3 -458.637L584.148 -456.499L610.804 -477.315C803.42 -627.727 1099.66 -283.755 1148.89 147.468L1155.97 209.562C1202.43 616.54 1482.73 940.13 1663.4 795.347L1726.44 744.823C1856.54 640.552 2057.53 839.593 2121.37 1135.92L2122.59 1135.84C2058.41 837.955 1856.37 637.871 1725.59 742.68L1662.54 793.217ZM1164.82 178.778C1211.08 584.034 1490.2 906.257 1670.1 762.08L1733.14 711.555C1863.93 606.745 2065.97 806.83 2130.14 1104.71L2128.93 1104.79C2065.09 808.468 1864.1 609.424 1734 713.686L1670.95 764.21C1490.29 909.005 1209.99 585.415 1163.53 178.426L1156.44 116.332C1107.22 -314.885 810.977 -658.857 618.361 -508.444L591.705 -487.629L590.857 -489.767L617.513 -510.583C810.895 -661.592 1108.31 -316.254 1157.73 116.684L1164.82 178.778ZM1677.65 730.955C1497.76 875.132 1218.64 552.909 1172.38 147.641L1165.29 85.547C1115.87 -347.384 818.452 -692.722 625.07 -541.712L598.414 -520.897L599.262 -518.759L625.918 -539.575C818.534 -689.987 1114.77 -346.015 1164 85.2061L1171.09 147.3C1217.54 554.278 1497.85 877.868 1678.51 733.085L1741.56 682.561C1871.66 578.299 2072.64 777.331 2136.48 1073.66L2137.71 1073.58C2073.53 775.705 1871.48 575.62 1740.7 680.429L1677.65 730.955ZM1179.94 116.516C1226.2 521.772 1505.31 843.995 1685.21 699.818L1748.26 649.293C1879.04 544.483 2081.08 744.568 2145.26 1042.45L2144.04 1042.53C2080.2 746.206 1879.21 547.163 1749.11 651.424L1686.07 701.959C1505.4 846.743 1225.1 523.153 1178.64 116.164L1171.55 54.0696C1122.33 -377.145 826.091 -721.117 633.475 -570.704L606.819 -549.889L605.971 -552.026L632.627 -572.842C826.009 -723.852 1123.43 -378.514 1172.85 54.4216L1179.94 116.516ZM1692.77 668.692C1512.87 812.87 1233.75 490.647 1187.49 85.3792L1180.4 23.2849C1130.98 -409.644 833.566 -754.982 640.184 -603.972L613.528 -583.157L614.376 -581.018L641.032 -601.834C833.648 -752.247 1129.89 -408.275 1179.11 22.9441L1186.2 85.0382C1232.66 492.016 1512.96 815.618 1693.62 670.823L1756.67 620.299C1886.77 516.037 2087.76 715.08 2151.59 1011.39L2152.82 1011.32C2088.64 713.443 1886.6 513.358 1755.82 618.168L1692.77 668.692ZM1195.05 54.2538C1241.31 459.51 1520.42 781.733 1700.33 637.566L1763.37 587.042C1894.15 482.222 2096.2 682.306 2160.37 980.186L2159.15 980.269C2095.31 683.944 1894.32 484.901 1764.23 589.173L1701.18 639.698C1520.52 784.481 1240.22 460.891 1193.76 53.9128L1186.67 -8.18571C1137.44 -439.404 841.205 -783.376 648.589 -632.964L621.932 -612.148L621.084 -614.286L647.741 -635.102C841.122 -786.112 1138.54 -440.774 1187.96 -7.84157L1195.05 54.2538ZM1707.88 606.43C1527.98 750.607 1248.87 428.385 1202.61 23.1284L1195.52 -38.9714C1146.1 -471.904 848.679 -817.242 655.298 -666.232L628.641 -645.416L629.489 -643.278L656.146 -664.094C848.761 -814.506 1145 -470.534 1194.23 -39.3158L1201.31 22.7763C1247.77 429.765 1528.08 753.356 1708.73 608.561L1771.78 558.037C1901.88 453.775 2102.87 652.818 2166.71 949.144L2167.93 949.061C2103.75 651.181 1901.71 451.096 1770.93 555.906L1707.88 606.43ZM1210.16 -8.00588C1256.42 397.259 1535.54 719.482 1715.44 575.304L1778.49 524.78C1909.27 419.971 2111.31 620.055 2175.49 917.936L2174.27 918.007C2110.42 621.682 1909.44 422.65 1779.34 526.912L1716.29 577.436C1535.63 722.219 1255.33 398.629 1208.87 -8.35023L1201.78 -70.4456C1152.56 -501.664 856.318 -845.635 663.702 -695.224L637.046 -674.408L636.198 -676.546L662.854 -697.362C856.236 -848.372 1153.65 -503.034 1203.07 -70.1013L1210.16 -8.00588ZM1723 544.179C1543.1 688.345 1263.98 366.123 1217.72 -39.1359L1210.63 -101.231C1161.21 -534.163 863.793 -879.502 670.412 -728.492L643.755 -707.676L644.603 -705.538L671.26 -726.354C863.876 -876.765 1160.12 -532.794 1209.34 -101.575L1216.43 -39.4803C1262.89 367.503 1543.19 691.093 1723.85 546.31L1786.89 495.775C1917 391.513 2117.98 590.557 2181.82 886.882L2183.05 886.799C2118.87 588.919 1916.82 388.834 1786.04 493.644L1723 544.179ZM1225.28 -70.2658C1271.54 334.997 1550.65 657.22 1730.55 513.043L1793.6 462.518C1924.38 357.709 2126.42 557.793 2190.6 855.674L2189.38 855.745C2125.54 559.431 1924.55 360.388 1794.45 464.65L1731.41 515.174C1550.75 659.968 1270.45 336.378 1223.99 -70.6101L1216.9 -132.705C1167.67 -563.924 871.432 -907.895 678.816 -757.484L652.16 -736.668L651.312 -738.806L677.968 -759.622C871.35 -910.632 1168.77 -565.293 1218.19 -132.361L1225.28 -70.2658ZM1738.11 481.917C1558.21 626.084 1279.1 303.872 1232.83 -101.396L1225.74 -163.491C1176.32 -596.423 878.906 -941.761 685.525 -790.752L658.869 -769.936L659.717 -767.798L686.373 -788.614C878.989 -939.025 1175.23 -595.054 1224.45 -163.835L1231.54 -101.74C1278 305.241 1558.3 628.831 1738.96 484.048L1802.01 433.524C1932.11 329.251 2133.09 528.295 2196.94 824.62L2198.16 824.537C2133.98 526.657 1931.93 326.572 1801.16 431.393L1738.11 481.917ZM1240.39 -132.526C1286.65 272.735 1565.77 594.958 1745.67 450.781L1808.71 400.256C1939.49 295.447 2141.54 495.532 2205.72 793.412L2204.49 793.494C2140.65 497.169 1939.67 298.126 1809.56 402.388L1746.52 452.923C1565.86 597.706 1285.56 274.116 1239.1 -132.87L1232.01 -194.965C1182.79 -626.184 886.546 -970.155 693.93 -819.743L667.274 -798.928L666.426 -801.066L693.082 -821.882C886.464 -972.891 1183.88 -627.553 1233.3 -194.621L1240.39 -132.526ZM1753.22 419.655C1573.33 563.833 1294.21 241.61 1247.95 -163.656L1240.86 -225.751C1191.44 -658.683 894.02 -1004.02 700.639 -853.011L673.983 -832.196L674.83 -830.058L701.487 -850.874C894.103 -1001.28 1190.34 -657.314 1239.57 -226.095L1246.66 -164C1293.11 242.979 1573.41 566.569 1754.08 421.787L1817.13 371.26C1947.22 267.001 2148.21 466.033 2212.05 762.358L2213.27 762.287C2149.09 464.406 1947.05 264.322 1816.27 369.131L1753.22 419.655ZM1255.5 -194.786C1301.76 210.473 1580.88 532.696 1760.78 388.53L1823.82 337.994C1954.6 233.185 2156.65 433.27 2220.83 731.15L2219.61 731.233C2155.77 434.907 1954.78 235.864 1824.68 340.124L1761.63 390.661C1580.97 535.444 1300.67 211.854 1254.21 -195.13L1247.12 -257.225C1197.9 -688.444 901.66 -1032.42 709.044 -882.003L682.387 -861.188L681.539 -863.326L708.196 -884.142C901.578 -1035.15 1198.99 -689.813 1248.41 -256.881L1255.5 -194.786Z" fill="#FF9636"/>
</mask>
<g mask="url(#mask0_208:36)">
<path d="M1206.56 1901.64L286.978 -1138.3L1688.67 -1676.87L2608.25 1363.07L1206.56 1901.64Z" fill="url(#paint0_linear_208:36)"/>
</g>
</g>
<g clip-path="url(#clip2_208:36)">
<mask id="mask1_208:36" style="mask-type:alpha" maskUnits="userSpaceOnUse" x="-589" y="-434" width="1253" height="1941">
<path fill-rule="evenodd" clip-rule="evenodd" d="M-21.5573 -54.7651C189.329 -120.818 366.879 197.236 299.856 521.002L289.587 570.609C217.987 916.473 406.634 1256.91 632.238 1188.97L663.336 1179.6L663.114 1177.75L632.016 1187.11C407.305 1254.78 219.405 915.692 290.721 571.194L300.991 521.587C368.298 196.456 189.994 -122.958 -21.7875 -56.6201L-95.6944 -33.4741C-248.2 14.2896 -385.097 -189.327 -364.681 -433.56L-365.862 -433.812C-386.388 -188.287 -248.774 16.3972 -95.4642 -31.6191L-21.5573 -54.7651ZM-37.2889 -32.6793C173.597 -98.7231 351.147 219.332 284.125 543.088L273.855 592.695C202.255 938.562 390.902 1279 616.506 1211.06L647.604 1201.69L647.382 1199.83L616.284 1209.2C391.573 1276.87 203.673 937.781 274.989 593.28L285.259 543.673C352.567 218.541 174.263 -100.863 -37.5192 -34.5343L-111.425 -11.3883C-263.931 36.3849 -400.829 -167.232 -380.413 -411.474L-381.594 -411.716C-402.119 -166.191 -264.505 38.4925 -111.197 -9.52374L-37.2889 -32.6793ZM268.392 565.174C335.416 241.418 157.866 -76.6373 -53.021 -10.584L-126.929 12.5622C-280.237 60.5784 -417.851 -144.105 -397.325 -389.63L-396.145 -389.388C-416.56 -145.146 -279.669 58.471 -127.157 10.707L-53.2514 -12.439C158.531 -78.7772 336.835 240.627 269.527 565.769L259.258 615.375C187.942 959.871 375.841 1298.96 600.553 1231.29L631.651 1221.92L631.872 1223.78L600.774 1233.15C375.17 1301.09 186.524 960.652 258.123 614.78L268.392 565.174ZM-68.7527 11.5018C142.133 -54.5515 319.684 263.503 252.661 587.269L242.391 636.876C170.791 982.742 359.438 1323.18 585.042 1255.24L616.14 1245.87L615.918 1244.01L584.82 1253.38C360.11 1321.05 172.21 981.961 243.526 637.461L253.795 587.854C321.103 262.722 142.799 -56.6819 -68.983 9.64683L-142.889 32.7928C-295.4 80.5568 -432.292 -123.051 -411.876 -367.293L-413.063 -367.544C-433.583 -122.02 -295.969 82.6642 -142.661 34.648L-68.7527 11.5018ZM236.928 609.355C303.952 285.599 126.402 -32.4562 -84.4848 33.5971L-158.392 56.7433C-311.7 104.759 -449.314 -99.9243 -428.794 -345.449L-427.608 -345.207C-448.023 -100.965 -311.132 102.652 -158.62 54.888L-84.7152 31.7327C127.067 -34.5961 305.371 284.808 238.064 609.95L227.794 659.556C156.478 1004.05 344.377 1343.14 569.089 1275.47L600.187 1266.1L600.409 1267.96L569.31 1277.33C343.706 1345.27 155.06 1004.83 226.659 658.962L236.928 609.355ZM-100.218 55.683C110.67 -10.3704 288.22 307.684 221.197 631.45L210.927 681.057C139.328 1026.92 327.974 1367.36 553.579 1299.42L584.677 1290.05L584.455 1288.19L553.357 1297.56C328.646 1365.23 140.746 1026.14 212.062 681.642L222.331 632.035C289.64 306.904 111.336 -12.5103 -100.446 53.8279L-174.352 76.974C-326.864 124.738 -463.755 -78.879 -443.339 -323.112L-444.526 -323.363C-465.046 -77.8386 -327.432 126.845 -174.124 78.8291L-100.218 55.683ZM205.465 653.536C272.489 329.78 94.9388 11.7249 -115.95 77.7688L-189.856 100.915C-343.163 148.941 -480.777 -55.7432 -460.258 -301.268L-459.071 -301.026C-479.487 -56.7839 -342.595 146.833 -190.083 99.0597L-116.178 75.9137C95.604 9.58495 273.908 328.989 206.6 654.121L196.331 703.732C125.015 1048.23 312.914 1387.32 537.625 1319.65L568.723 1310.28L568.945 1312.14L537.847 1321.51C312.243 1389.45 123.597 1049.01 195.196 703.144L205.465 653.536ZM-131.681 99.8642C79.2066 33.8108 256.757 351.866 189.734 675.622L179.464 725.233C107.864 1071.1 296.511 1411.54 522.115 1343.6L553.213 1334.23L552.991 1332.37L521.893 1341.74C297.183 1409.41 109.283 1070.32 180.599 725.821L190.868 676.217C258.176 351.075 79.8718 31.6708 -131.909 98.009L-205.815 121.155C-358.327 168.919 -495.218 -34.6979 -474.803 -278.94L-475.989 -279.182C-496.509 -33.6575 -358.895 171.026 -205.587 123.01L-131.681 99.8642ZM174.002 697.715C241.025 373.951 63.4749 55.8966 -147.413 121.95L-221.319 145.096C-374.627 193.112 -512.241 -11.5716 -491.721 -257.096L-490.534 -256.845C-510.95 -12.6027 -374.058 191.005 -221.547 143.241L-147.641 120.095C64.1402 53.766 242.444 373.17 175.137 698.303L164.867 747.911C93.551 1092.41 281.451 1431.5 506.162 1363.83L537.26 1354.46L537.482 1356.32L506.383 1365.69C280.78 1433.63 92.1328 1093.19 163.732 747.323L174.002 697.715ZM-163.145 144.036C47.7428 77.9919 225.293 396.047 158.27 719.805L148 769.412C76.4012 1115.28 265.047 1455.72 490.651 1387.78L521.75 1378.41L521.528 1376.55L490.43 1385.92C265.719 1453.59 77.8194 1114.5 149.135 770L159.404 720.393C226.712 395.256 48.4086 75.852 -163.373 142.181L-237.278 165.336C-389.79 213.1 -526.681 9.48313 -506.266 -234.759L-507.452 -235.001C-527.972 10.5236 -390.358 215.207 -237.05 167.191L-163.145 144.036ZM142.538 741.894C209.561 418.133 32.0112 100.078 -178.876 166.131L-252.782 189.277C-406.09 237.293 -543.704 32.6094 -523.184 -212.915L-521.997 -212.664C-542.413 31.5689 -405.522 235.186 -253.01 187.422L-179.104 164.276C32.6764 97.9378 210.98 417.342 143.673 742.482L133.403 792.09C62.0872 1136.59 249.987 1475.68 474.698 1408.01L505.796 1398.64L506.018 1400.5L474.92 1409.87C249.316 1477.81 60.6696 1137.37 132.269 791.502L142.538 741.894ZM-194.608 188.217C16.2796 122.173 193.829 440.218 126.807 763.984L116.537 813.592C44.9374 1159.46 233.584 1499.9 459.188 1431.96L490.286 1422.59L490.065 1420.73L458.966 1430.1C234.256 1497.77 46.3556 1158.68 117.672 814.18L127.941 764.572C195.249 439.437 16.9448 120.033 -194.836 186.362L-268.741 209.508C-421.253 257.281 -558.145 53.6642 -537.729 -190.578L-538.916 -190.82C-559.435 54.7047 -421.821 259.388 -268.514 211.363L-194.608 188.217ZM111.074 786.074C178.098 462.314 0.547963 144.259 -210.339 210.312L-284.245 233.458C-437.553 281.474 -575.167 76.7905 -554.647 -168.734L-553.461 -168.492C-573.876 75.7501 -436.985 279.367 -284.473 231.603L-210.567 208.448C1.21318 142.119 179.517 461.523 112.209 786.662L101.94 836.269C30.624 1180.77 218.523 1519.86 443.235 1452.19L474.333 1442.82L474.554 1444.68L443.456 1454.05C217.852 1521.99 29.2057 1181.55 100.805 835.681L111.074 786.074ZM-226.071 232.398C-15.1837 166.345 162.366 484.399 95.3429 808.163L85.0733 857.771C13.4742 1203.64 202.12 1544.08 427.724 1476.13L458.822 1466.77L458.601 1464.91L427.503 1474.28C202.792 1541.95 14.8924 1202.86 86.2084 858.359L96.4774 808.751C163.786 483.618 -14.5184 164.214 -226.299 230.543L-300.211 253.689C-452.716 301.453 -589.608 97.8454 -569.192 -146.397L-570.379 -146.648C-590.899 98.8763 -453.285 303.56 -299.977 255.544L-226.071 232.398ZM79.6107 830.253C146.634 506.495 -30.9158 188.44 -241.803 254.484L-315.708 277.639C-469.016 325.655 -606.63 120.972 -586.11 -124.553L-584.924 -124.311C-605.339 119.931 -468.448 323.548 -315.942 275.784L-242.031 252.629C-30.2506 186.3 148.053 505.704 80.7458 830.841L70.4762 880.448C-0.839774 1224.95 187.06 1564.04 411.771 1496.37L442.869 1487L443.091 1488.86L411.992 1498.22C186.388 1566.17 -2.25805 1225.73 69.3417 879.86L79.6107 830.253Z" fill="#FF9636"/>
</mask>
<g mask="url(#mask1_208:36)">
<path d="M699.797 -769.881L742.424 1799.24L-739.318 1863.35L-781.945 -705.77L699.797 -769.881Z" fill="url(#paint1_linear_208:36)"/>
</g>
</g>
</g>
<defs>
<linearGradient id="paint0_linear_208:36" x1="663.007" y1="-802.484" x2="2382.54" y2="-440.365" gradientUnits="userSpaceOnUse">
<stop stop-color="#5E2121" stop-opacity="0.75"/>
<stop offset="0.369792" stop-color="#FF6948" stop-opacity="0.7"/>
<stop offset="0.526042" stop-color="#791DEE" stop-opacity="0.81"/>
<stop offset="0.614583" stop-color="#392AEA" stop-opacity="0.21"/>
<stop offset="1" stop-color="#121212"/>
</linearGradient>
<linearGradient id="paint1_linear_208:36" x1="476.482" y1="1446.84" x2="-918.882" y2="523.51" gradientUnits="userSpaceOnUse">
<stop offset="0.135417" stop-color="#121212" stop-opacity="0"/>
<stop offset="0.390625" stop-color="#F94E81" stop-opacity="0.49"/>
<stop offset="0.479167" stop-color="#AC3F8E"/>
<stop offset="0.588542" stop-color="#3728EF"/>
<stop offset="1" stop-color="#9B6E6E" stop-opacity="0"/>
</linearGradient>
<clipPath id="clip0_208:36">
<rect width="1440" height="965" fill="white"/>
</clipPath>
<clipPath id="clip1_208:36">
<rect width="1389" height="1208.84" fill="white" transform="translate(1986.84 668.082) rotate(163.671)"/>
</clipPath>
<clipPath id="clip2_208:36">
<rect width="1389" height="965" fill="white" transform="translate(-381)"/>
</clipPath>
</defs>
</svg>
