<svg width="206" height="206" viewBox="0 0 206 206" fill="none" xmlns="http://www.w3.org/2000/svg">
<g clip-path="url(#clip0)">
<path d="M54.0651 164C44.8491 163.616 38.2251 161.456 34.1931 157.52C30.2571 153.584 28.2891 147.296 28.2891 138.656L29.2971 121.088C29.2971 116.672 28.1451 113.168 25.8411 110.576C23.5371 107.888 19.6491 105.776 14.1771 104.24V98.192C19.6491 96.944 23.5371 95.024 25.8411 92.432C28.1451 89.744 29.2971 86.096 29.2971 81.488L28.2891 63.056C28.2891 54.32 30.2571 48.032 34.1931 44.192C38.2251 40.256 44.8971 38.096 54.2091 37.712L54.3531 43.904C47.2491 44.288 42.3051 45.968 39.5211 48.944C36.7371 51.92 35.3451 56.672 35.3451 63.2L36.3531 80.624C36.3531 86.768 35.2971 91.28 33.1851 94.16C31.0731 97.04 27.2331 99.392 21.6651 101.216C27.1371 102.944 30.9291 105.296 33.0411 108.272C35.1531 111.248 36.2091 115.712 36.2091 121.664L35.2011 138.224C35.2011 144.752 36.5931 149.552 39.3771 152.624C42.2571 155.696 47.2971 157.424 54.4971 157.808L54.0651 164ZM71.0076 48.08H109.024C132.064 48.08 143.584 58.832 143.584 80.336C143.584 93.104 138.784 102.512 129.184 108.56L143.152 146H121.408L110.032 113.168H90.8796V146H71.0076V48.08ZM109.312 96.176C113.824 96.176 117.28 94.784 119.68 92C122.08 89.12 123.28 85.28 123.28 80.48C123.28 75.68 122.032 71.936 119.536 69.248C117.04 66.464 113.536 65.072 109.024 65.072H90.8796V96.176H109.312ZM155.552 157.808C162.752 157.424 167.744 155.696 170.528 152.624C173.408 149.552 174.848 144.752 174.848 138.224L173.84 121.664C173.84 115.712 174.896 111.248 177.008 108.272C179.12 105.296 182.912 102.944 188.384 101.216C182.816 99.392 178.976 97.04 176.864 94.16C174.848 91.28 173.84 86.768 173.84 80.624L174.848 63.2C174.848 56.672 173.408 51.92 170.528 48.944C167.744 45.968 162.8 44.288 155.696 43.904L155.84 37.712C165.152 38.096 171.776 40.256 175.712 44.192C179.744 48.032 181.76 54.32 181.76 63.056L180.752 81.488C180.752 86.096 181.904 89.744 184.208 92.432C186.512 95.024 190.4 96.944 195.872 98.192V104.24C190.4 105.776 186.512 107.888 184.208 110.576C181.904 113.168 180.752 116.672 180.752 121.088L181.76 138.656C181.76 147.296 179.744 153.584 175.712 157.52C171.776 161.456 165.2 163.616 155.984 164L155.552 157.808Z" fill="#A7CADE"/>
</g>
<defs>
<clipPath id="clip0">
<rect width="206" height="206" fill="white"/>
</clipPath>
</defs>
</svg>
