<svg width="74" height="25" viewBox="0 0 74 25" fill="none" xmlns="http://www.w3.org/2000/svg">
<g clip-path="url(#clip0_401_57)">
<path d="M36.5641 6.07446C36.2889 6.07446 36.2614 6.45462 36.2595 6.55711V20.2184H38.0549C38.3301 20.2184 38.3567 19.8373 38.3585 19.7358V14.3922C38.3667 14.351 38.3857 14.3129 38.4137 14.282C38.4417 14.2511 38.4775 14.2287 38.5172 14.217H40.8869C41.1401 14.217 41.1832 13.9058 41.1896 13.7716V12.0749H38.5035C38.4594 12.0606 38.4213 12.0315 38.3955 11.9924C38.3697 11.9534 38.3576 11.9066 38.3613 11.8597V8.41222C38.3677 8.35729 38.3946 8.30694 38.4364 8.27144C38.4781 8.23594 38.5317 8.21798 38.586 8.22121H41.8226C42.252 8.22121 42.2373 7.63701 42.2373 7.63701V6.07446H36.5641Z" fill="white"/>
<path d="M43.9821 6.07446C43.7068 6.07446 43.6793 6.45462 43.6775 6.55711V20.2184H45.4728C45.7481 20.2184 45.7747 19.8373 45.7765 19.7358V14.3922C45.7846 14.351 45.8037 14.3129 45.8317 14.282C45.8597 14.2511 45.8955 14.2287 45.9352 14.217H48.3048C48.558 14.217 48.6012 13.9058 48.6076 13.7716V12.0749H45.9214C45.8773 12.0606 45.8393 12.0315 45.8135 11.9924C45.7877 11.9534 45.7756 11.9066 45.7792 11.8597V8.41222C45.7857 8.35729 45.8126 8.30694 45.8543 8.27144C45.8961 8.23594 45.9496 8.21798 46.004 8.22121H49.2406C49.6699 8.22121 49.6552 7.63701 49.6552 7.63701V6.07446H43.9821Z" fill="white"/>
<path d="M16.2703 11.3062L10.7421 6.69963C10.8466 6.54124 16.2841 1.01596 16.44 0.912537C17.0143 0.526793 17.8014 0.249132 18.4023 0.250063H25.4057C26.0066 0.250063 26.7947 0.529588 27.3671 0.913469L17.2281 11.2121C17.1171 11.3192 16.7024 11.6668 16.2703 11.3062Z" fill="url(#paint0_linear_401_57)"/>
<path d="M26.5809 11.2121L26.5525 11.1832C26.5525 11.1832 26.5635 11.1953 26.5809 11.2121Z" fill="url(#paint1_linear_401_57)"/>
<path d="M22.8325 6.5524L27.369 0.937683C27.5249 1.04297 32.9651 6.56545 33.066 6.72385C33.4467 7.30712 33.7192 8.10656 33.7183 8.71779V15.8308C33.7183 16.4411 33.4431 17.2414 33.0651 17.8228L22.9251 7.52422C22.8196 7.41241 22.4774 6.99126 22.8325 6.5524Z" fill="url(#paint2_linear_401_57)"/>
<path d="M27.5314 13.1911L33.0606 17.7996C32.956 17.957 27.5186 23.4832 27.3617 23.5848C26.7892 23.9715 26.0012 24.2491 25.4003 24.2482H18.3978C17.796 24.2482 17.007 23.9687 16.4346 23.5839L26.5755 13.2862C26.6846 13.179 27.1002 12.8305 27.5314 13.1911Z" fill="url(#paint3_linear_401_57)"/>
<path d="M20.9665 17.9459L16.43 23.5615C16.275 23.4553 10.8339 17.9328 10.733 17.7735C10.3522 17.1911 10.0798 16.3917 10.0807 15.7814V8.66843C10.0807 8.05813 10.3559 7.25776 10.7339 6.67542L20.8739 16.974C20.9794 17.0859 21.3206 17.507 20.9665 17.9459Z" fill="url(#paint4_linear_401_57)"/>
<path d="M5.74594 19.8625L8.21466 6.08562H6.39363C6.29736 6.08247 6.20279 6.11187 6.12475 6.1692C6.04672 6.22654 5.98963 6.30856 5.96245 6.40241L4.35058 17.0048C4.34227 17.0223 4.32924 17.0371 4.31301 17.0475C4.29679 17.0578 4.27801 17.0633 4.25884 17.0633C4.23968 17.0633 4.2209 17.0578 4.20467 17.0475C4.18844 17.0371 4.17542 17.0223 4.1671 17.0048L2.54973 6.38284C2.51937 6.29393 2.46172 6.21726 2.38526 6.1641C2.30881 6.11093 2.21758 6.08408 2.12498 6.08748H0.307617L2.79468 20.2184H5.33587C5.67622 20.2184 5.74594 19.8625 5.74594 19.8625Z" fill="white"/>
<path d="M53.067 6.08563H51.3148V19.9147C51.3148 20.1802 51.6616 20.2184 51.6616 20.2184H53.4175V6.38938C53.4175 6.12383 53.067 6.08563 53.067 6.08563Z" fill="white"/>
<path d="M59.521 10.6149V10.6354C59.5247 10.6279 59.521 10.6223 59.521 10.6149Z" fill="white"/>
<path d="M59.8677 10.9186L61.7025 10.9242V9.31134C61.7096 8.86711 61.6276 8.42606 61.4615 8.01504C61.2954 7.60401 61.0488 7.2316 60.7365 6.92047C60.4326 6.59916 60.0667 6.34509 59.6616 6.17417C59.2565 6.00325 58.821 5.91918 58.3825 5.92722C57.9448 5.92686 57.5114 6.01415 57.1071 6.18409C56.7027 6.35404 56.3353 6.60332 56.0259 6.91765C55.7165 7.23198 55.4712 7.60519 55.304 8.01593C55.1367 8.42667 55.0509 8.86687 55.0514 9.31134V17.0262C55.0514 17.922 55.4018 18.7811 56.0254 19.4145C56.6491 20.048 57.495 20.4038 58.377 20.4038C59.259 20.4038 60.1048 20.048 60.7285 19.4145C61.3521 18.7811 61.7025 17.922 61.7025 17.0262V15.3621C61.7025 15.0966 61.3567 15.0584 61.3567 15.0584L59.5265 15.0528V17.0039C59.529 17.1648 59.4988 17.3245 59.4377 17.4729C59.3766 17.6214 59.2859 17.7555 59.1714 17.8667C59.0598 17.9813 58.9266 18.0719 58.7796 18.1329C58.6327 18.1939 58.4751 18.2241 58.3164 18.2217C58.1586 18.2226 58.0022 18.1918 57.8563 18.131C57.7103 18.0702 57.5777 17.9805 57.4661 17.8672C57.3545 17.754 57.2661 17.6193 57.2061 17.4711C57.1461 17.3229 57.1156 17.1641 57.1165 17.0039V9.27034C57.1139 9.10903 57.1436 8.94888 57.2039 8.7996C57.2641 8.65033 57.3536 8.51504 57.4669 8.40195C57.5762 8.28537 57.7082 8.19306 57.8544 8.13084C58.0006 8.06862 58.1579 8.03784 58.3164 8.04043C58.6372 8.04142 58.9446 8.17134 59.1713 8.40181C59.398 8.63227 59.5257 8.94454 59.5265 9.27034V10.6391C59.543 10.8851 59.8677 10.9186 59.8677 10.9186Z" fill="white"/>
<path d="M69.0949 8.21559C69.1866 8.19696 69.3866 8.13081 69.3967 7.93607V6.07257H63.7208C63.4593 6.07257 63.4226 6.42477 63.4226 6.42477V19.8662C63.4226 19.8662 63.4593 20.2184 63.7208 20.2184H69.3967V18.3595C69.3866 18.163 69.1839 18.0968 69.0949 18.08H65.517V14.2226H68.0472C68.1389 14.2039 68.3399 14.1378 68.349 13.9431V12.0796H65.5207V8.22212L69.0949 8.21559Z" fill="white"/>
<path d="M71.2444 8.08983V6.27013H70.8774V6.06421H71.8352V6.27013H71.4682V8.08983H71.2444Z" fill="white"/>
<path d="M72.7801 8.08983H72.5663L72.2361 6.47791V8.08983H72.0406V6.06421H72.3507L72.6828 7.68266L72.9984 6.06421H73.3094V8.08983H73.0984V6.46114L72.7801 8.08983Z" fill="white"/>
</g>
<defs>
<linearGradient id="paint0_linear_401_57" x1="21.2903" y1="1.7185" x2="12.2174" y2="10.285" gradientUnits="userSpaceOnUse">
<stop stop-color="#B23267"/>
<stop offset="0.25" stop-color="#952B56"/>
<stop offset="0.57" stop-color="#7D2849"/>
<stop offset="1" stop-color="#782746"/>
</linearGradient>
<linearGradient id="paint1_linear_401_57" x1="26.5286" y1="11.2373" x2="26.7337" y2="11.0299" gradientUnits="userSpaceOnUse">
<stop stop-color="#B23267"/>
<stop offset="0.25" stop-color="#952B56"/>
<stop offset="0.57" stop-color="#7D2849"/>
<stop offset="1" stop-color="#782746"/>
</linearGradient>
<linearGradient id="paint2_linear_401_57" x1="32.2725" y1="11.6509" x2="23.5616" y2="2.70615" gradientUnits="userSpaceOnUse">
<stop stop-color="#B23267"/>
<stop offset="0.25" stop-color="#952B56"/>
<stop offset="0.57" stop-color="#7D2849"/>
<stop offset="1" stop-color="#782746"/>
</linearGradient>
<linearGradient id="paint3_linear_401_57" x1="22.5114" y1="22.7798" x2="31.5843" y2="14.2133" gradientUnits="userSpaceOnUse">
<stop stop-color="#B23267"/>
<stop offset="0.25" stop-color="#952B56"/>
<stop offset="0.57" stop-color="#7D2849"/>
<stop offset="1" stop-color="#782746"/>
</linearGradient>
<linearGradient id="paint4_linear_401_57" x1="11.5265" y1="12.8473" x2="20.2383" y2="21.7921" gradientUnits="userSpaceOnUse">
<stop stop-color="#B23267"/>
<stop offset="0.25" stop-color="#952B56"/>
<stop offset="0.57" stop-color="#7D2849"/>
<stop offset="1" stop-color="#782746"/>
</linearGradient>
<clipPath id="clip0_401_57">
<rect width="73" height="24" fill="white" transform="translate(0.307617 0.249146)"/>
</clipPath>
</defs>
</svg>
