<svg width="100" height="28" viewBox="0 0 100 28" fill="none" xmlns="http://www.w3.org/2000/svg">
<g clip-path="url(#clip0_401_102)">
<path d="M0 -0.0130615V28.0132H100V-0.0130615H0Z" fill="#FFC60A"/>
<path d="M60.2421 19.4194C58.906 19.4194 57.5773 19.1691 56.7875 18.8581V7.83728H59.5778V11.5084C59.9395 11.387 60.5448 11.2581 61.032 11.2581C63.3941 11.2581 65.0328 12.6309 65.0328 14.9974C65.0919 18.0466 63.3351 19.4194 60.2421 19.4194ZM60.4857 13.1315C60.1831 13.1315 59.8214 13.1922 59.5778 13.3212V17.4929C59.7623 17.5535 60.065 17.6142 60.3676 17.6142C61.5192 17.6142 62.1835 16.8026 62.1835 15.3084C62.2426 13.9355 61.6373 13.1315 60.4857 13.1315Z" fill="black"/>
<path d="M69.7571 19.4194C66.8488 19.4194 65.4536 18.4865 65.4536 16.8026C65.4536 14.7471 67.9412 14.2465 70.6651 14.1252V13.8142C70.6651 13.1922 70.1779 12.8812 69.2109 12.8812C68.303 12.8812 67.2695 13.1315 66.6052 13.3818L65.9408 11.7662C66.7306 11.5159 67.8822 11.1443 69.58 11.1443C72.0676 11.1443 73.3373 12.0166 73.3373 14.0721V18.805C72.6065 19.1767 71.2187 19.427 69.7645 19.427L69.7571 19.4194ZM70.6651 15.6801C69.1518 15.7407 68.0003 15.8697 68.0003 16.8026C68.0003 17.4246 68.6056 17.7962 69.639 17.7962C70.0007 17.7962 70.4879 17.7356 70.6725 17.6749V15.6801H70.6651Z" fill="black"/>
<path d="M79.5157 19.2298V14.1252C79.5157 13.5032 79.154 13.0633 78.1797 13.0633C77.6334 13.0633 77.2126 13.2529 77.2126 13.2529V19.2298H74.4224V11.8194C75.4558 11.5084 76.6664 11.1974 78.2387 11.1974C81.088 11.1974 82.3577 12.191 82.3577 13.8749V19.2298H79.5084H79.5157Z" fill="black"/>
<path d="M88.9644 19.2298L86.1815 15.3084H86.1224V19.2298H83.3322V7.83728H86.1224V14.7471H86.1815L88.7282 11.387H91.8802L89.0308 15.0581L92.1164 19.2298H88.9644Z" fill="black"/>
<path d="M51.576 22.4079H48.6677L50.0628 19.2981L46.6082 11.4478H49.6347L51.517 16.9923L53.3329 11.4478H56.3594L51.576 22.4079Z" fill="black"/>
<path d="M37.0267 8.77026H33.7566L31.5716 15.2478L29.4531 8.77026H26.183L24.7288 19.2298H27.3936L28.2425 12.009L30.7301 19.2298H32.4869L34.9672 12.009L35.8161 19.2298H38.4809L37.0267 8.77026Z" fill="black"/>
<path d="M43.1535 19.4194C40.2451 19.4194 38.85 18.4865 38.85 16.8026C38.85 14.7471 41.3376 14.2465 44.0615 14.1251V13.8142C44.0615 13.1922 43.5743 12.8812 42.6073 12.8812C41.6993 12.8812 40.6659 13.1315 40.0015 13.3818L39.3372 11.8269C40.127 11.5766 41.5222 11.205 42.9764 11.205C45.464 11.205 46.7336 12.0772 46.7336 14.1327V18.8657C46.0029 19.1767 44.6151 19.427 43.1609 19.427L43.1535 19.4194ZM44.0615 15.6801C42.5482 15.7407 41.3967 15.8697 41.3967 16.8026C41.3967 17.4246 42.002 17.7962 43.0354 17.7962C43.3971 17.7962 43.8843 17.7356 44.0688 17.6749V15.6801H44.0615Z" fill="black"/>
<path d="M13.634 5.22058C8.90966 5.22058 5.08594 9.14198 5.08594 14.0039C5.08594 18.8582 8.90228 22.7872 13.634 22.7872C18.3582 22.7872 22.182 18.8658 22.182 14.0039C22.182 9.14956 18.3656 5.22058 13.634 5.22058ZM13.634 22.0363C9.33042 22.0363 5.81673 18.4259 5.81673 14.0039C5.81673 9.5819 9.33042 5.97149 13.634 5.97149C17.9375 5.97149 21.4512 9.5819 21.4512 14.0039C21.4512 18.4259 17.9375 22.0363 13.634 22.0363Z" fill="black"/>
<path d="M10.2457 13.564C9.6404 13.3744 9.09415 14.1253 8.7915 14.6866C8.90961 13.9433 9.82494 12.76 10.2457 13.564Z" fill="black"/>
<path d="M8.90967 13.6247C9.09421 12.8737 9.57402 12.631 9.87667 12.8737C9.51497 12.9344 9.21232 13.124 8.90967 13.6247Z" fill="black"/>
<path d="M10.4819 14.7472C10.7846 14.4969 10.7846 14.0645 10.2974 13.9356C9.93569 13.8142 9.14585 14.4969 9.08679 15.2402C9.33039 14.8685 10.2383 14.1176 10.4819 14.7396V14.7472Z" fill="black"/>
<path d="M15.3318 16.6814C15.3909 15.7484 14.4829 15.3085 14.2984 14.3149C14.1138 13.3213 15.6935 11.7588 14.7191 10.2039C16.6015 11.7588 15.1399 12.6917 16.0552 13.9432C15.6935 13.8219 15.3244 13.5109 15.2063 13.3213C14.7191 14.0646 16.5424 15.0051 15.3244 16.6814H15.3318Z" fill="black"/>
<path d="M12.3643 9.02063C12.6079 9.02063 12.9696 9.21025 12.785 9.33161C12.2388 9.83221 11.5744 9.64259 11.0282 10.1432C11.2127 9.58191 12.2388 9.46055 12.3643 9.02063Z" fill="black"/>
<path d="M14.003 9.76394C14.2466 9.51364 14.003 9.14198 13.1541 9.0813C14.062 9.51364 12.6078 9.64258 12.5488 10.4542C12.0616 10.6438 11.6999 10.3328 11.4563 10.5755C11.2127 10.7651 10.9691 10.6362 11.0355 10.3859C10.7329 10.5073 10.7919 10.9472 11.0946 11.0685C11.1537 11.0685 11.2127 11.1292 11.1537 11.1899C10.851 11.5009 10.7329 11.7512 11.0355 12.0015C11.2201 11.6905 11.2791 11.5691 11.4563 11.3795C11.6408 11.5009 11.9435 11.4402 12.3643 10.9472H12.4233C12.0616 12.1304 11.2127 12.3201 10.9691 12.2518C11.1537 12.5021 12.2388 12.6841 12.3643 12.1911C12.6669 11.0685 13.7594 10.5755 12.8514 10.5755C13.036 10.2645 13.8184 9.95356 14.003 9.76394ZM11.6999 11.1368C11.6408 11.1368 11.5818 11.0155 11.5818 10.8865C11.6408 11.1368 11.8844 11.0079 11.7663 10.6969C11.8254 10.6969 11.9509 10.6969 12.1871 10.6969C11.9435 10.8182 11.8254 11.1292 11.6999 11.1292V11.1368Z" fill="black"/>
<path d="M14.4829 9.14195C14.9036 9.45293 15.1472 9.64255 15.4499 10.0142C15.5089 9.51361 15.2063 8.58066 14.8446 8.33036C14.66 8.209 14.4238 8.89165 14.4829 9.14195Z" fill="black"/>
<path d="M7.39636 13.0027C7.69901 12.2518 8.36336 11.3189 9.51491 10.6362C9.7585 9.95358 9.69945 9.45298 12.4233 8.39109C12.4824 7.95875 12.4824 7.45815 12.6078 7.45815C12.7259 7.45815 13.1541 7.64777 13.3977 8.08011C13.5158 8.08011 13.6413 8.08011 13.7003 8.01943C13.7594 7.76913 13.9439 7.08649 14.1211 6.77551C14.3056 6.46452 14.7264 6.40384 15.2136 6.83618C15.7008 7.26852 16.0625 7.45815 16.7859 8.33041C17.3912 8.58071 18.2991 8.95237 19.089 9.946C18.7273 9.69569 18.3582 9.63502 17.9965 9.57434C18.6608 10.1356 19.089 11.1292 18.7273 12.5628C18.6092 11.2582 17.6348 10.6969 17.0885 10.257C17.3912 11.3795 16.0551 11.0079 15.6343 10.1356C15.7524 10.1963 15.937 10.1963 15.996 10.1356C15.937 8.45177 15.1471 7.45815 14.8445 7.14717C14.4237 6.77551 14.1801 7.70845 13.9956 8.39109C13.9365 8.64139 13.752 8.76275 13.5084 8.76275C13.5675 8.70207 13.6265 8.45177 13.6265 8.39109C12.9622 8.45177 12.1723 8.89169 11.6851 9.07373C10.4745 9.63502 10.1719 9.946 9.92828 10.8789C8.96128 11.3113 7.86878 12.4945 7.38159 12.9951L7.39636 13.0027Z" fill="black"/>
<path d="M13.4568 12.76C13.5749 12.8814 14.3647 14.1329 13.4568 15.7484C13.7004 14.5652 13.036 12.3883 12.2462 13.5033C12.7924 13.7536 12.977 14.186 12.7924 14.6259C12.5488 14.1935 12.0026 13.7536 11.4563 13.9432C11.2127 14.0646 10.851 14.0646 10.5484 13.6323C10.1867 13.1317 10.792 12.449 9.75854 12.5097C10.9691 11.8877 10.6074 13.1317 11.2127 13.2606C11.8771 13.4502 12.0026 13.0103 12.1797 12.6993C12.3643 12.449 12.726 12.267 13.0877 12.5097C13.2722 11.9484 13.0286 11.0761 13.5085 10.6438C13.693 10.4542 14.2983 10.5224 14.6009 10.7652C14.1802 10.7652 13.693 11.3264 13.4494 12.76H13.4568Z" fill="black"/>
<path d="M19.6352 10.6362C20.2405 12.8131 20.056 14.9976 19.4507 16.2415C19.5097 15.4299 18.8454 14.3073 19.148 12.9421C17.8784 14.2467 19.8788 17.3641 16.9631 19.4196C17.3838 18.6687 17.5684 16.9317 17.4502 16.2415C17.6348 16.3022 17.7529 16.4918 17.871 16.6738C18.1146 15.8622 18.1737 14.679 17.6865 13.4958C17.871 13.4958 18.1737 13.6854 18.3508 13.8067C18.4099 12.0015 17.1402 11.8119 16.8966 11.3189C16.8966 11.8802 17.5019 12.3125 17.6274 13.0027C17.2067 12.8131 16.8966 12.7524 16.6604 12.8131C16.9631 13.0634 17.6938 14.497 17.5093 15.6802C17.2067 15.4299 16.904 15.3085 16.6014 15.2479C16.9631 15.8698 17.1476 17.4247 16.6604 18.1756C16.6604 17.986 16.6014 17.5537 16.4168 17.3641C16.1732 18.2363 15.5089 18.608 15.0807 18.7369C15.627 18.115 15.5679 17.0531 14.719 16.7421C13.9882 16.4918 13.0212 16.9924 12.6005 18.8583C12.0542 19.0479 10.4155 18.6687 11.3899 17.5537C11.9952 17.7433 13.5084 16.7421 13.3903 15.9988C13.2722 15.0052 12.3569 14.6259 11.6335 14.6259C10.7255 14.6259 10.1793 15.4982 9.44848 15.8698C8.84318 15.7485 8.65864 15.6802 8.35599 14.8762C8.29693 14.3756 8.84318 14.0039 8.84318 13.5033C8.42242 13.6247 8.29693 12.9421 7.44804 13.6247C7.38898 13.5033 7.50709 13.1924 7.50709 13.1924C7.20444 13.5033 7.14539 13.8143 7.14539 13.875C7.26349 14.186 7.50709 14.4363 7.93523 14.7473C8.42242 16.1201 8.96867 16.2415 9.44848 16.3022C9.50753 16.4235 9.93567 16.9241 10.4155 16.9848C10.3564 16.7345 10.2974 15.9912 10.3564 15.8622C11.4489 14.7397 12.2388 15.4299 12.2978 15.7409C11.3308 15.9305 11.9952 18.0467 10.4155 17.1138C10.3564 17.3034 10.4155 17.8647 10.6591 18.1756C10.8436 19.6092 12.6005 19.2375 13.1467 19.4802C13.0877 18.1074 13.8111 17.0531 14.4828 17.1744C15.1472 17.2351 15.2726 18.3577 14.1802 19.3513C14.4237 19.4727 15.6343 19.2906 16.2396 18.8507C16.2987 19.2224 15.8779 20.2236 15.3317 20.9669C19.6943 19.7836 21.8128 14.6183 19.6352 10.6287V10.6362ZM7.93523 14.497C7.69163 14.3073 7.38898 13.9964 7.32993 13.8143C7.38898 13.7536 7.57352 13.564 7.81712 13.5033C8.00166 13.4427 8.11977 13.564 8.06072 13.6247C8.06072 13.6854 7.87617 13.6854 7.81712 13.8143C7.75807 14.0039 7.93523 14.0646 8.00166 14.186C8.06072 14.2467 8.11977 14.3756 7.94261 14.497H7.93523ZM9.44848 16.0519C9.50753 15.9305 9.75113 15.7409 9.81018 15.7409C9.75113 16.1125 9.86924 16.5525 9.86924 16.5525C9.86924 16.5525 9.50753 16.3022 9.44848 16.0519ZM11.8697 16.4235C11.9878 16.4235 12.1133 16.5449 12.1723 16.4842C12.2904 16.4235 12.1723 16.0519 12.1133 15.9836C12.2314 15.9836 12.6595 15.9836 12.6005 16.1732C12.5414 16.5449 12.2978 16.7345 11.6925 16.9848C11.8106 16.8635 11.8106 16.6132 11.8771 16.4235H11.8697ZM10.6591 17.7964C10.6 17.7357 10.4155 17.5461 10.4745 17.2958C10.6591 17.4172 10.9617 17.4854 10.9617 17.4854C10.9617 17.4854 10.8436 17.7357 10.6591 17.7964Z" fill="black"/>
</g>
<defs>
<clipPath id="clip0_401_102">
<rect width="100" height="28" fill="white"/>
</clipPath>
</defs>
</svg>
